<svg preserveAspectRatio="none" width="100%" height="100%" overflow="visible" style="display: block;" viewBox="0 0 10.1998 7.2" fill="none" xmlns="http://www.w3.org/2000/svg">
<path id="Vector" d="M8.95938 0.469141C9.15208 0.272064 9.44662 0.24715 9.66445 0.395898L9.75332 0.471094L9.76113 0.478906L9.76895 0.488672C9.94931 0.707063 9.95082 1.04727 9.71914 1.26797L9.72109 1.26992L4.38418 6.63027L4.3832 6.6293C4.21028 6.80668 3.98826 6.89976 3.74746 6.8998C3.52369 6.8998 3.28392 6.80874 3.10781 6.62637V6.62539L0.464258 3.96426L0.461328 3.96133C0.246729 3.73908 0.246723 3.38865 0.461328 3.16641L0.549219 3.09121C0.766814 2.94235 1.06146 2.96697 1.2543 3.16348H1.25527L3.76211 5.68789L8.95938 0.468164V0.469141Z" fill="var(--fill-0, #212E45)" stroke="var(--stroke-0, #212E45)" stroke-width="0.6"/>
</svg>
