<svg preserveAspectRatio="none" width="100%" height="100%" overflow="visible" style="display: block;" viewBox="0 0 125.333 14.524" fill="none" xmlns="http://www.w3.org/2000/svg">
<g id="TheBestPDF">
<path d="M4.34424 14.3691V3.36957H0V0.813343H11.8303V3.36957H7.48606V14.3691H4.34424Z" fill="var(--fill-0, #0B102C)"/>
<path d="M19.6492 3.7956C20.4767 3.7956 21.2137 3.96344 21.8602 4.2991C22.5195 4.62186 23.0367 5.12535 23.4117 5.8096C23.7866 6.48093 23.9741 7.34591 23.9741 8.40455V14.3691H20.9486V8.86932C20.9486 8.03015 20.7612 7.41046 20.3862 7.01024C20.0242 6.61003 19.507 6.40992 18.8347 6.40992C18.3563 6.40992 17.9232 6.5132 17.5353 6.71977C17.1604 6.91342 16.863 7.21681 16.6432 7.62994C16.4363 8.04306 16.3329 8.57238 16.3329 9.21789V14.3691H13.3074V0H16.3329V6.83596L15.6541 5.96452C16.029 5.26737 16.5656 4.73159 17.2638 4.3572C17.962 3.9828 18.7571 3.7956 19.6492 3.7956Z" fill="var(--fill-0, #0B102C)"/>
<path d="M31.9705 14.524C30.781 14.524 29.7337 14.2916 28.8286 13.8268C27.9365 13.3621 27.2448 12.7295 26.7535 11.929C26.2622 11.1157 26.0165 10.1926 26.0165 9.1598C26.0165 8.11407 26.2557 7.19099 26.7341 6.39055C27.2254 5.57721 27.8913 4.94461 28.7317 4.49275C29.5721 4.02799 30.5224 3.7956 31.5826 3.7956C32.604 3.7956 33.522 4.01508 34.3365 4.45402C35.164 4.88006 35.8169 5.49975 36.2953 6.31309C36.7737 7.11353 37.0129 8.07534 37.0129 9.19853C37.0129 9.31472 37.0064 9.45028 36.9935 9.6052C36.9806 9.74721 36.9676 9.88277 36.9547 10.0119H28.4795V8.24963H35.3644L34.2008 8.77249C34.2008 8.23026 34.0909 7.75904 33.8711 7.35882C33.6513 6.9586 33.3474 6.64876 32.9595 6.42929C32.5717 6.1969 32.1191 6.08071 31.602 6.08071C31.0848 6.08071 30.6258 6.1969 30.225 6.42929C29.8371 6.64876 29.5333 6.96506 29.3135 7.37819C29.0937 7.7784 28.9838 8.25608 28.9838 8.81122V9.27599C28.9838 9.84404 29.1066 10.3475 29.3523 10.7865C29.6109 11.2125 29.9664 11.5417 30.4189 11.7741C30.8844 11.9936 31.4274 12.1033 32.048 12.1033C32.604 12.1033 33.0888 12.0194 33.5026 11.8516C33.9292 11.6837 34.3171 11.432 34.6662 11.0963L36.2759 12.8392C35.7975 13.3814 35.1963 13.801 34.4723 14.098C33.7482 14.382 32.9143 14.524 31.9705 14.524Z" fill="var(--fill-0, #0B102C)"/>
<path d="M39.2405 14.3691V0.813343H45.8732C47.5798 0.813343 48.8598 1.1361 49.7132 1.78161C50.5794 2.42712 51.0126 3.27919 51.0126 4.33783C51.0126 5.04789 50.838 5.66758 50.4889 6.1969C50.1398 6.71331 49.6615 7.11353 49.0538 7.39755C48.4461 7.68158 47.7479 7.82359 46.9592 7.82359L47.3277 7.02961C48.1811 7.02961 48.9374 7.17162 49.5968 7.45565C50.2562 7.72676 50.7669 8.13343 51.1289 8.67566C51.5039 9.21789 51.6914 9.88277 51.6914 10.6703C51.6914 11.8322 51.2324 12.7424 50.3144 13.4008C49.3964 14.0463 48.0453 14.3691 46.2611 14.3691H39.2405ZM42.3629 12.0065H46.0283C46.8429 12.0065 47.457 11.8774 47.8708 11.6192C48.2974 11.3481 48.5108 10.922 48.5108 10.3411C48.5108 9.77303 48.2974 9.35345 47.8708 9.08233C47.457 8.79831 46.8429 8.6563 46.0283 8.6563H42.1301V6.37119H45.4853C46.2481 6.37119 46.8299 6.24209 47.2308 5.98388C47.6445 5.71277 47.8514 5.3061 47.8514 4.76387C47.8514 4.23455 47.6445 3.84079 47.2308 3.58258C46.8299 3.31147 46.2481 3.17591 45.4853 3.17591H42.3629V12.0065Z" fill="var(--fill-0, #0B102C)"/>
<path d="M59.0348 14.524C57.8454 14.524 56.7981 14.2916 55.893 13.8268C55.0009 13.3621 54.3092 12.7295 53.8179 11.929C53.3266 11.1157 53.0809 10.1926 53.0809 9.1598C53.0809 8.11407 53.3201 7.19099 53.7985 6.39055C54.2898 5.57721 54.9557 4.94461 55.7961 4.49275C56.6365 4.02799 57.5868 3.7956 58.647 3.7956C59.6684 3.7956 60.5864 4.01508 61.4009 4.45402C62.2284 4.88006 62.8813 5.49975 63.3597 6.31309C63.8381 7.11353 64.0773 8.07534 64.0773 9.19853C64.0773 9.31472 64.0708 9.45028 64.0579 9.6052C64.0449 9.74721 64.032 9.88277 64.0191 10.0119H55.5439V8.24963H62.4288L61.2651 8.77249C61.2651 8.23026 61.1553 7.75904 60.9355 7.35882C60.7157 6.9586 60.4118 6.64876 60.0239 6.42929C59.6361 6.1969 59.1835 6.08071 58.6664 6.08071C58.1492 6.08071 57.6902 6.1969 57.2894 6.42929C56.9015 6.64876 56.5977 6.96506 56.3779 7.37819C56.1581 7.7784 56.0482 8.25608 56.0482 8.81122V9.27599C56.0482 9.84404 56.171 10.3475 56.4167 10.7865C56.6752 11.2125 57.0308 11.5417 57.4833 11.7741C57.9488 11.9936 58.4918 12.1033 59.1124 12.1033C59.6684 12.1033 60.1532 12.0194 60.567 11.8516C60.9936 11.6837 61.3815 11.432 61.7306 11.0963L63.3403 12.8392C62.8619 13.3814 62.2607 13.801 61.5367 14.098C60.8126 14.382 59.9787 14.524 59.0348 14.524Z" fill="var(--fill-0, #0B102C)"/>
<path d="M69.6018 14.524C68.7097 14.524 67.8499 14.4207 67.0224 14.2141C66.2079 13.9947 65.5614 13.7236 65.083 13.4008L66.0915 11.2319C66.5699 11.5288 67.1323 11.7741 67.7788 11.9678C68.4382 12.1485 69.0846 12.2389 69.7182 12.2389C70.4164 12.2389 70.9077 12.155 71.1921 11.9871C71.4895 11.8193 71.6382 11.5869 71.6382 11.29C71.6382 11.0447 71.5218 10.8639 71.2891 10.7478C71.0693 10.6186 70.7719 10.5218 70.397 10.4573C70.022 10.3927 69.6083 10.3282 69.1558 10.2636C68.7162 10.1991 68.2701 10.1152 67.8176 10.0119C67.365 9.89568 66.9513 9.72784 66.5764 9.50837C66.2014 9.2889 65.8976 8.99196 65.6648 8.61757C65.445 8.24317 65.3351 7.75904 65.3351 7.16517C65.3351 6.50675 65.5226 5.92579 65.8976 5.42229C66.2855 4.91879 66.8414 4.52503 67.5655 4.24101C68.2895 3.94407 69.1558 3.7956 70.1642 3.7956C70.8754 3.7956 71.5994 3.87306 72.3364 4.02799C73.0733 4.18291 73.6875 4.40884 74.1788 4.70577L73.1703 6.85532C72.6661 6.55839 72.1554 6.35828 71.6382 6.255C71.1339 6.13881 70.6426 6.08071 70.1642 6.08071C69.4919 6.08071 69.0006 6.17108 68.6903 6.35182C68.38 6.53257 68.2248 6.76495 68.2248 7.04898C68.2248 7.30718 68.3347 7.50083 68.5545 7.62994C68.7873 7.75904 69.0911 7.86232 69.4661 7.93978C69.841 8.01724 70.2483 8.08825 70.6879 8.1528C71.1404 8.20444 71.5929 8.28836 72.0454 8.40455C72.498 8.52074 72.9052 8.68857 73.2673 8.90805C73.6422 9.11461 73.9461 9.40509 74.1788 9.77948C74.4115 10.141 74.5279 10.6186 74.5279 11.2125C74.5279 11.858 74.3339 12.4325 73.9461 12.936C73.5582 13.4266 72.9958 13.8139 72.2588 14.098C71.5347 14.382 70.6491 14.524 69.6018 14.524Z" fill="var(--fill-0, #0B102C)"/>
<path d="M80.6612 14.524C79.4329 14.524 78.4762 14.2141 77.7909 13.5945C77.1056 12.9619 76.763 12.0259 76.763 10.7865V1.64605H79.7885V10.7478C79.7885 11.1867 79.9048 11.5288 80.1376 11.7741C80.3703 12.0065 80.6871 12.1227 81.0879 12.1227C81.5663 12.1227 81.9735 11.9936 82.3097 11.7354L83.1242 13.8656C82.8139 14.085 82.439 14.2529 81.9994 14.3691C81.5727 14.4723 81.1267 14.524 80.6612 14.524ZM75.1533 6.50675V4.18291H82.3873V6.50675H75.1533Z" fill="var(--fill-0, #0B102C)"/>
<path d="M85.0359 14.3691V0.813343H90.9123C92.1276 0.813343 93.1749 1.01345 94.0541 1.41367C94.9333 1.80097 95.6121 2.36257 96.0905 3.09845C96.5688 3.83433 96.808 4.71223 96.808 5.73213C96.808 6.73913 96.5688 7.61057 96.0905 8.34645C95.6121 9.08233 94.9333 9.65038 94.0541 10.0506C93.1749 10.4379 92.1276 10.6316 90.9123 10.6316H86.7814L88.1777 9.21789V14.3691H85.0359ZM88.1777 9.56647L86.7814 8.07534H90.7377C91.7074 8.07534 92.4315 7.86877 92.9098 7.45565C93.3882 7.04252 93.6274 6.46802 93.6274 5.73213C93.6274 4.98334 93.3882 4.40238 92.9098 3.98926C92.4315 3.57613 91.7074 3.36957 90.7377 3.36957H86.7814L88.1777 1.87844V9.56647Z" fill="var(--fill-0, #0B102C)"/>
<path d="M99.0511 14.3691V0.813343H105.218C106.692 0.813343 107.992 1.09737 109.117 1.66542C110.241 2.22056 111.121 3.00162 111.754 4.00862C112.388 5.01562 112.704 6.20981 112.704 7.5912C112.704 8.95969 112.388 10.1539 111.754 11.1738C111.121 12.1808 110.241 12.9683 109.117 13.5364C107.992 14.0915 106.692 14.3691 105.218 14.3691H99.0511ZM102.193 11.7935H105.063C105.968 11.7935 106.75 11.6256 107.41 11.29C108.082 10.9414 108.599 10.4508 108.961 9.81822C109.336 9.18562 109.524 8.44328 109.524 7.5912C109.524 6.72622 109.336 5.98388 108.961 5.36419C108.599 4.73159 108.082 4.24746 107.41 3.91179C106.75 3.56322 105.968 3.38893 105.063 3.38893H102.193V11.7935Z" fill="var(--fill-0, #0B102C)"/>
<path d="M117.983 6.91342H124.499V9.43091H117.983V6.91342ZM118.216 14.3691H115.074V0.813343H125.333V3.33083H118.216V14.3691Z" fill="var(--fill-0, #0B102C)"/>
</g>
</svg>
