<svg preserveAspectRatio="none" width="100%" height="100%" overflow="visible" style="display: block;" viewBox="0 0 18 18" fill="none" xmlns="http://www.w3.org/2000/svg">
<g id="Group">
<path id="language" d="M13.208 8.69336C13.2887 8.69336 13.3434 8.73127 13.3691 8.7832L17.4688 17.1084L17.4697 17.1094C17.5425 17.2562 17.4758 17.4227 17.3828 17.4766L17.3818 17.4775C17.3506 17.4957 17.3262 17.4999 17.3086 17.5C17.265 17.5 17.1927 17.4723 17.1484 17.3809L17.1465 17.377L16.2324 15.5303L16.0947 15.252H10.3135L10.1758 15.5322L9.26855 17.3779L9.26758 17.3809C9.23412 17.4496 9.18775 17.4805 9.15234 17.4922C9.11811 17.5034 9.07806 17.5026 9.0332 17.4766C8.94143 17.4233 8.87275 17.2649 8.94727 17.1084L13.0469 8.7832C13.0726 8.73126 13.1273 8.69337 13.208 8.69336ZM12.7598 10.2939L10.9238 14.0176L10.5684 14.7383H15.8477L15.4922 14.0176L13.6562 10.2939L13.208 9.38379L12.7598 10.2939ZM5.54102 0.5C5.60509 0.500171 5.7334 0.574283 5.7334 0.756836V2.77051H10.3887C10.4527 2.77051 10.582 2.84458 10.582 3.02734C10.582 3.21003 10.4527 3.28418 10.3887 3.28418H9.85156L9.75293 3.65625C9.46075 4.75906 8.75612 6.82547 6.89648 8.91797C6.62796 9.21139 6.35987 9.48274 6.08594 9.73828L5.62695 10.167L6.14844 10.5186C6.91793 11.0371 7.7485 11.4713 8.62598 11.7891V11.79C8.71165 11.8225 8.8104 11.9655 8.76074 12.1367C8.72386 12.2576 8.63834 12.2979 8.58105 12.2979C8.57024 12.2978 8.5623 12.2951 8.55957 12.2939L8.53027 12.2822L8.13477 12.1309C7.21945 11.7602 6.351 11.2689 5.54688 10.6768L5.25098 10.459L4.9541 10.6768C3.8464 11.4884 2.78579 11.981 1.96484 12.2783C1.95212 12.2823 1.94023 12.2862 1.92969 12.2881C1.91984 12.2899 1.91379 12.2899 1.91211 12.29C1.87529 12.29 1.8141 12.2684 1.76953 12.2031L1.73145 12.1221C1.68292 11.9548 1.78419 11.8141 1.86523 11.7852C2.55863 11.5379 3.4346 11.1339 4.35156 10.5186L4.88086 10.1631L4.40918 9.7334C4.13149 9.48049 3.85927 9.2053 3.60742 8.92285C2.56791 7.75768 1.73311 6.3936 1.1377 4.87305L1.13672 4.87207L1.11914 4.80957C1.09297 4.67056 1.16392 4.55161 1.23926 4.51172C1.31385 4.47939 1.4283 4.50251 1.48242 4.63672C2.05671 6.08736 2.85548 7.40086 3.8584 8.52832L3.85938 8.53027C4.18961 8.89892 4.54459 9.25531 4.92383 9.58203L5.25586 9.86816L5.58301 9.57617C5.92814 9.26833 6.29017 8.92715 6.6416 8.52734L6.64258 8.52832C8.1978 6.77365 8.90564 5.05429 9.25293 3.93164L9.45312 3.28418H0.692383C0.628327 3.28401 0.500051 3.20982 0.5 3.02734C0.5 2.84479 0.628314 2.77067 0.692383 2.77051H5.34863V0.756836C5.34863 0.574072 5.47702 0.5 5.54102 0.5Z" fill="var(--fill-0, #212E45)" stroke="var(--stroke-0, #212E45)"/>
</g>
</svg>
