<svg preserveAspectRatio="none" width="100%" height="100%" overflow="visible" style="display: block;" viewBox="0 0 21.0004 22.6884" fill="none" xmlns="http://www.w3.org/2000/svg">
<g id="Group">
<path id="Vector" d="M7.1625 21.0009H2.3625C1.9875 21.0009 1.6875 20.7009 1.6875 20.3259V2.32594C1.6875 1.95094 1.9875 1.65094 2.3625 1.65094H10.8375V6.45094C10.8375 6.90094 11.2125 7.31344 11.7 7.31344H16.4625V9.82594C16.4625 10.2759 16.8375 10.6884 17.325 10.6884C17.8125 10.6884 18.1875 10.3134 18.1875 9.82594V6.67594C18.1875 6.26344 18 5.85094 17.7 5.55094L12.45 0.450942C12.15 0.150942 11.7375 0.000941886 11.325 0.000941886H2.325C1.05 -0.0365581 0 1.05094 0 2.32594V20.3259C0 21.6009 1.05 22.6884 2.3625 22.6884H7.2C7.65 22.6884 8.0625 22.3134 8.0625 21.8259C8.0625 21.3384 7.65 21.0009 7.1625 21.0009ZM12.4875 2.85094L15.3 5.62594H12.4875V2.85094Z" fill="var(--fill-0, #212E45)"/>
<path id="Vector_2" d="M20.7004 13.4258C20.4004 13.1258 20.1004 12.8258 19.8004 12.5258C19.5379 12.2633 19.2754 11.9633 18.9754 11.7008C18.8254 11.5133 18.6004 11.3633 18.3379 11.3258C18.0379 11.2883 17.7379 11.3633 17.5129 11.5508L10.9879 18.0383C10.8004 18.2258 10.6879 18.4133 10.6129 18.6383L9.67539 21.4883L9.52539 21.9383L9.78789 22.2758C9.90039 22.4258 10.1254 22.6508 10.5379 22.6508H10.6879L13.6504 21.6758C13.8754 21.6008 14.1004 21.4883 14.2504 21.3008L20.7004 14.8883C20.8879 14.7008 21.0004 14.4383 21.0004 14.1383C21.0004 13.8758 20.8879 13.6133 20.7004 13.4258ZM18.1879 13.2758C18.3379 13.4258 18.4879 13.5758 18.6004 13.7258C18.7504 13.8758 18.9004 14.0258 19.0504 14.1758L18.6379 14.5883L17.7754 13.7258L18.1879 13.2758ZM13.0879 20.1008L11.7754 20.5133L12.1879 19.2008L16.5379 14.8508L17.4004 15.7133L13.0879 20.1008Z" fill="var(--fill-0, #212E45)"/>
</g>
</svg>
