<svg width="51" height="48" viewBox="0 0 51 48" fill="none" xmlns="http://www.w3.org/2000/svg">
  <path d="M11.533 37.8L15.3997 41.6667C15.5775 41.8889 15.7997 42 16.0663 42C16.3775 41.9556 16.6219 41.8444 16.7997 41.6667C17.0219 41.4444 17.133 41.2 17.133 40.9333C17.133 40.6667 17.0219 40.4444 16.7997 40.2667L12.8663 36.3333L16.933 32.3333C17.1108 32.1556 17.1997 31.9333 17.1997 31.6667C17.1997 31.3556 17.0886 31.1111 16.8663 30.9333C16.6886 30.7111 16.4663 30.6 16.1997 30.6C15.933 30.6 15.6886 30.7111 15.4663 30.9333L11.533 34.8667L7.53301 30.9333C7.35523 30.7556 7.13301 30.6667 6.86634 30.6667C6.59968 30.6222 6.35523 30.7111 6.13301 30.9333C5.95523 31.1111 5.86634 31.3333 5.86634 31.6C5.86634 31.8667 5.95523 32.1111 6.13301 32.3333L10.133 36.3333L6.13301 40.2C5.95523 40.4222 5.86634 40.6889 5.86634 41C5.86634 41.2667 5.95523 41.5111 6.13301 41.7333C6.35523 41.9111 6.59968 42 6.86634 42C7.17745 42 7.44412 41.8889 7.66634 41.6667L11.533 37.8ZM11.4663 47.8C8.31079 47.8 5.59968 46.6889 3.33301 44.4667C1.11079 42.2 -0.000325203 39.4889 -0.000325203 36.3333C-0.000325203 33.1333 1.11079 30.4222 3.33301 28.2C5.59968 25.9333 8.31079 24.8 11.4663 24.8C14.6663 24.8 17.3775 25.9333 19.5997 28.2C21.8663 30.4222 22.9997 33.1333 22.9997 36.3333C22.9997 39.4889 21.8663 42.2 19.5997 44.4667C17.3775 46.6889 14.6663 47.8 11.4663 47.8ZM31.3997 28.6C30.6886 29.1778 29.8886 29.7333 28.9997 30.2667C28.1108 30.8 27.2441 31.2222 26.3997 31.5333C26.3108 31.0444 26.1775 30.5556 25.9997 30.0667C25.8219 29.5333 25.5997 29.0444 25.333 28.6C27.8219 27.7111 29.933 26.1778 31.6663 24C33.3997 21.8222 34.2663 19.2 34.2663 16.1333C34.2663 12.5333 32.9775 9.46666 30.3997 6.93333C27.8663 4.35555 24.7997 3.06667 21.1997 3.06667C17.5552 3.06667 14.4441 4.35555 11.8663 6.93333C9.33301 9.46666 8.06634 12.5333 8.06634 16.1333C8.06634 16.8889 8.13301 17.6889 8.26634 18.5333C8.44412 19.3333 8.6219 20.0444 8.79967 20.6667C8.39968 20.7111 7.93301 20.8222 7.39968 21C6.86634 21.1333 6.37745 21.2889 5.93301 21.4667C5.6219 20.7556 5.37745 19.9333 5.19968 19C5.06634 18.0222 4.99967 17.0667 4.99967 16.1333C4.99967 11.6444 6.57745 7.84444 9.73301 4.73333C12.8886 1.57777 16.7108 -3.8147e-06 21.1997 -3.8147e-06C25.6441 -3.8147e-06 29.4219 1.57777 32.533 4.73333C35.6886 7.88889 37.2663 11.6889 37.2663 16.1333C37.2663 18.0444 36.9108 19.9111 36.1997 21.7333C35.533 23.5556 34.6441 25.1111 33.533 26.4L49.733 42.5333C50.0441 42.8444 50.1997 43.2222 50.1997 43.6667C50.1997 44.0667 50.0441 44.4222 49.733 44.7333C49.4219 45.0889 49.0441 45.2667 48.5997 45.2667C48.1997 45.2667 47.8441 45.0889 47.533 44.7333L31.3997 28.6Z" fill="#3758F9"/>
</svg>
