<svg preserveAspectRatio="none" width="100%" height="100%" overflow="visible" style="display: block;" viewBox="0 0 22.6875 19.3125" fill="none" xmlns="http://www.w3.org/2000/svg">
<path id="Vector" d="M20.625 9.3C19.8375 8.3625 18.8625 7.6875 17.8125 7.275C18.8625 6.5625 19.5375 5.3625 19.5375 3.975C19.5375 1.7625 17.7375 0 15.5625 0C13.3875 0 11.55 1.8 11.55 4.0125C11.55 5.3625 12.225 6.6 13.275 7.3125C12.225 7.725 11.25 8.4 10.4625 9.3375C10.425 9.375 10.425 9.4125 10.3875 9.4125C10.05 9.225 9.7125 9.075 9.375 8.925C10.425 8.2125 11.1 7.0125 11.1 5.625C11.1 3.4125 9.3 1.65 7.125 1.65C4.95 1.65 3.15 3.45 3.15 5.625C3.15 6.975 3.825 8.2125 4.875 8.925C3.825 9.3375 2.85 10.0125 2.0625 10.95C0.7875 12.4875 0.0375 14.5875 0 16.875C0 17.2125 0.1875 17.5125 0.45 17.625C1.2375 18.0375 4.05 19.3125 7.125 19.3125C10.425 19.3125 13.0875 18 13.8375 17.625C13.875 17.625 13.875 17.5875 13.9125 17.5875C14.475 17.6625 15.0375 17.7 15.5625 17.7C18.825 17.7 21.525 16.3875 22.2375 16.0125C22.5 15.8625 22.6875 15.5625 22.6875 15.2625C22.6125 12.975 21.9 10.8375 20.625 9.3ZM15.525 1.6875C16.8 1.6875 17.8125 2.7375 17.8125 3.975C17.8125 5.2125 16.8 6.3 15.525 6.3C14.25 6.3 13.2375 5.25 13.2375 4.0125C13.2375 2.775 14.25 1.6875 15.525 1.6875ZM7.125 3.3C8.4 3.3 9.4125 4.35 9.4125 5.5875C9.4125 6.825 8.3625 7.875 7.125 7.875C5.8875 7.875 4.8375 6.825 4.8375 5.5875C4.8375 4.35 5.85 3.3 7.125 3.3ZM7.125 17.6625C4.875 17.6625 2.7 16.8375 1.6875 16.3875C1.8 14.7 2.4 13.1625 3.3375 12.0375C4.35 10.8375 5.7 10.2 7.125 10.2C8.5875 10.2 9.9 10.8375 10.9125 12.0375C11.85 13.1625 12.45 14.7 12.5625 16.3875C11.625 16.8375 9.525 17.6625 7.125 17.6625ZM15.525 16.05C15.1125 16.05 14.6625 16.0125 14.175 15.9375C13.9875 14.025 13.275 12.2625 12.1875 10.95C12.0375 10.7625 11.8875 10.6125 11.7 10.425C11.7 10.425 11.7 10.425 11.7375 10.3875C12.75 9.1875 14.0625 8.55 15.525 8.55C16.9875 8.55 18.3 9.1875 19.3125 10.3875C20.25 11.5125 20.8125 13.05 20.9625 14.7375C19.95 15.225 17.925 16.05 15.525 16.05Z" fill="var(--fill-0, #212E45)"/>
</svg>
