<svg preserveAspectRatio="none" width="100%" height="100%" overflow="visible" style="display: block;" viewBox="0 0 24 24" fill="none" xmlns="http://www.w3.org/2000/svg">
<g id="Layer_1" clip-path="url(#clip0_0_27290)">
<path id="Vector" d="M20.4853 3.51469C19.371 2.40038 18.0481 1.51646 16.5922 0.913403C15.1363 0.310343 13.5759 -4.87068e-05 12 -5.08832e-05C8.81741 -5.52785e-05 5.76516 1.26423 3.51471 3.51466C1.26427 5.7651 -2.30503e-05 8.81736 -2.74457e-05 12C-3.1841e-05 15.1826 1.26425 18.2348 3.51469 20.4853C5.76513 22.7357 8.81738 24 12 24C15.1826 24 18.2348 22.7357 20.4853 20.4853C22.7357 18.2349 24 15.1826 24 12C24 8.81739 22.7358 5.76513 20.4853 3.51469ZM21.2973 16.875H16.4988C16.7296 15.5114 16.8601 14.1327 16.8892 12.75H22.4729C22.3713 14.1916 21.971 15.5964 21.2973 16.875ZM12 22.4618C11.1367 22.4618 10.0659 20.9885 9.35977 18.375H14.6402C13.9341 20.9885 12.8633 22.4618 12 22.4618ZM9.021 16.875C8.77536 15.513 8.63824 14.1337 8.61094 12.75H15.3891C15.3618 14.1337 15.2246 15.513 14.979 16.875H9.021ZM1.52709 12.75H7.11094C7.14006 14.1327 7.27054 15.5114 7.50131 16.875H2.70267C2.02903 15.5964 1.6287 14.1916 1.52709 12.75ZM2.70267 7.125H7.50117C7.2704 8.48861 7.13992 9.86731 7.1108 11.25H1.52709C1.6287 9.80836 2.02903 8.40361 2.70267 7.125ZM12 1.5382C12.8633 1.5382 13.9341 3.01153 14.6402 5.625H9.35977C10.0659 3.01153 11.1367 1.5382 12 1.5382ZM14.979 7.125C15.2246 8.48698 15.3618 9.86631 15.3891 11.25H8.61094C8.63824 9.86631 8.77536 8.48698 9.021 7.125H14.979ZM16.8891 11.25C16.8599 9.86731 16.7295 8.48861 16.4987 7.125H21.2973C21.971 8.40361 22.3713 9.80836 22.4729 11.25H16.8891ZM20.337 5.625H16.1866C16.0375 5.01075 15.8539 4.40539 15.6368 3.81178C15.3538 3.04706 15.0343 2.38983 14.6828 1.84772C16.9335 2.44673 18.9221 3.77514 20.3371 5.625H20.337ZM9.31716 1.84791C8.96559 2.38983 8.64623 3.04706 8.36325 3.81197C8.14607 4.40551 7.96248 5.01081 7.81336 5.625H3.66286C5.07796 3.77521 7.06649 2.44687 9.31716 1.84791ZM3.66286 18.375H7.81336C7.96247 18.9893 8.14606 19.5946 8.36325 20.1882C8.64623 20.9529 8.96569 21.6102 9.31716 22.1523C7.06647 21.5533 5.07794 20.2249 3.66286 18.375ZM14.6828 22.1521C15.0344 21.6102 15.3538 20.9529 15.6368 20.188C15.8539 19.5945 16.0375 18.9892 16.1866 18.375H20.3371C18.922 20.2248 16.9335 21.5531 14.6828 22.1521Z" fill="var(--fill-0, #212E45)"/>
</g>
<defs>
<clipPath id="clip0_0_27290">
<rect width="24" height="24" fill="white"/>
</clipPath>
</defs>
</svg>
