<svg preserveAspectRatio="none" width="100%" height="100%" overflow="visible" style="display: block;" viewBox="0 0 21.1875 22.6875" fill="none" xmlns="http://www.w3.org/2000/svg">
<g id="Group">
<path id="Vector" d="M8.025 11.2125C10.05 11.2125 11.7375 9.5625 11.7375 7.5C11.7375 5.4375 10.05 3.825 8.025 3.825C6 3.825 4.3125 5.475 4.3125 7.5375C4.3125 9.6 6 11.2125 8.025 11.2125ZM8.025 5.5125C9.15 5.5125 10.05 6.4125 10.05 7.5375C10.05 8.6625 9.15 9.5625 8.025 9.5625C6.9 9.5625 6 8.6625 6 7.5375C6 6.4125 6.9 5.5125 8.025 5.5125Z" fill="var(--fill-0, #212E45)"/>
<path id="Vector_2" d="M9.9375 16.2H6.1125C5.6625 16.2 5.25 16.575 5.25 17.0625C5.25 17.55 5.625 17.925 6.1125 17.925H9.9C10.35 17.925 10.7625 17.55 10.7625 17.0625C10.7625 16.575 10.3875 16.2 9.9375 16.2Z" fill="var(--fill-0, #212E45)"/>
<path id="Vector_3" d="M10.875 13.4625H5.175C4.725 13.4625 4.3125 13.8375 4.3125 14.325C4.3125 14.8125 4.6875 15.1875 5.175 15.1875H10.9125C11.3625 15.1875 11.7375 14.8125 11.7375 14.325C11.7375 13.8375 11.3625 13.4625 10.875 13.4625Z" fill="var(--fill-0, #212E45)"/>
<path id="Vector_4" d="M18.2625 0H1.575C0.7125 0 0 0.7125 0 1.575V21.075C0 21.9375 0.7125 22.6875 1.6125 22.6875H18.3C19.875 22.6875 21.1875 21.4125 21.1875 19.8V2.85C21.15 1.275 19.875 0 18.2625 0ZM1.6875 21V1.6875H13.725C14.1 1.6875 14.4 1.9875 14.4 2.3625V20.3625C14.4 20.7375 14.1 21.0375 13.725 21.0375H1.6875V21ZM19.4625 19.8C19.4625 20.475 18.9375 21 18.2625 21H15.9375C16.0125 20.775 16.05 20.5875 16.05 20.325V2.325C16.05 2.1 16.0125 1.875 15.9375 1.65H18.2625C18.9375 1.65 19.4625 2.175 19.4625 2.85V19.8Z" fill="var(--fill-0, #212E45)"/>
</g>
</svg>
