<svg preserveAspectRatio="none" width="100%" height="100%" overflow="visible" style="display: block;" viewBox="0 0 29.0909 29.048" fill="none" xmlns="http://www.w3.org/2000/svg">
<g id="Frame 1000005274">
<path id="Vector" d="M14.5455 29.048C22.5787 29.048 29.0909 22.5454 29.0909 14.524C29.0909 6.50261 22.5787 0 14.5455 0C6.51222 0 0 6.50261 0 14.524C0 22.5454 6.51222 29.048 14.5455 29.048Z" fill="var(--fill-0, #3758F9)"/>
<g id="Group">
<path id="Vector_2" d="M9.33939 20.1776V12.3886C9.33939 12 9.48091 11.6704 9.76383 11.3995C10.0469 11.1287 10.383 10.9933 10.7721 10.9933H18.5372C18.9264 10.9933 20.0668 11.0383 20.344 11.315C20.7799 11.5799 20.9883 12.0177 20.9883 12.4062V18.0582L17.4506 21.5905H10.7545C10.3653 21.5905 10.0322 21.4521 9.755 21.1755C9.47792 20.8988 9.33939 20.5662 9.33939 20.1776ZM5.81939 10.4634C5.74869 10.0749 5.82535 9.72463 6.04937 9.4126C6.27339 9.10057 6.58004 8.90914 6.96919 8.83854L14.6459 7.47853C15.035 7.40793 15.3858 7.48448 15.6983 7.70817C16.0107 7.93187 16.2023 8.23806 16.2732 8.62664L16.45 9.58034H10.7545C9.97617 9.58034 9.30994 9.85701 8.75566 10.4105C8.20138 10.9638 10.1985 18.376 10.1985 19.1532H7.9243C7.73569 19.0472 7.57354 18.9059 7.43787 18.7293C7.30231 18.5527 7.21682 18.3525 7.18141 18.1288L5.81939 10.4634ZM18.5372 17.3516H16.4147C16.2141 17.3516 16.0462 17.4194 15.9105 17.5547C15.7749 17.6902 15.7071 17.8579 15.7071 18.0582V20.1776L18.5372 17.3516Z" fill="var(--fill-0, #000E4F)"/>
</g>
<g id="Group_2">
<path id="Vector_3" d="M11.6138 20.1776V12.3886C11.6138 12 11.7552 11.6704 12.0382 11.3995C12.3213 11.1287 12.6574 10.9933 13.0465 10.9933H20.8117C21.2008 10.9933 21.5339 11.1317 21.811 11.4083C22.0881 11.685 22.2266 12.0177 22.2266 12.4062V18.0582L18.689 21.5905H13.0288C12.6396 21.5905 12.3065 21.4521 12.0294 21.1755C11.7523 20.8988 11.6138 20.5662 11.6138 20.1776ZM8.0938 10.4634C8.0231 10.0749 8.09976 9.72463 8.32378 9.4126C8.54781 9.10057 8.85445 8.90914 9.24349 8.83854L16.9201 7.47853C17.3093 7.40793 17.6602 7.48448 17.9727 7.70817C18.2852 7.93187 18.4767 8.23806 18.5476 8.62664L18.7244 9.58034H13.0288C12.2506 9.58034 11.5842 9.85701 11.0301 10.4105C10.4758 10.9638 10.1987 11.6292 10.1987 12.4062V19.1532C10.01 19.0472 9.84784 18.9059 9.71228 18.7293C9.57672 18.5527 9.49112 18.3525 9.45583 18.1288L8.0938 10.4634ZM20.8117 17.3516H18.689C18.4886 17.3516 18.3206 17.4194 18.1849 17.5547C18.0493 17.6902 17.9815 17.8579 17.9815 18.0582V20.1776L20.8117 17.3516Z" fill="var(--fill-0, white)"/>
</g>
</g>
</svg>
