<svg preserveAspectRatio="none" width="100%" height="100%" overflow="visible" style="display: block;" viewBox="0 0 11.025 9.89063" fill="none" xmlns="http://www.w3.org/2000/svg">
<g id="Group">
<path id="Vector" d="M6.15 9.89063C5.925 9.89063 5.7 9.81562 5.55 9.62812C5.2125 9.29062 5.2125 8.76562 5.55 8.42812L8.1375 5.84063H0.825C0.375 5.84063 0 5.46563 0 5.01563C0 4.56563 0.375 4.19063 0.825 4.19063H8.1375L5.4 1.45313C5.0625 1.11563 5.0625 0.590625 5.4 0.253125C5.7375 -0.084375 6.2625 -0.084375 6.6 0.253125L10.7625 4.41563C10.9125 4.56563 11.025 4.79063 11.025 5.01563C11.025 5.24063 10.95 5.46562 10.7625 5.61562L6.75 9.62812C6.6 9.81562 6.375 9.89063 6.15 9.89063Z" fill="var(--fill-0, #212E45)"/>
</g>
</svg>
