<svg preserveAspectRatio="none" width="100%" height="100%" overflow="visible" style="display: block;" viewBox="0 0 22.65 22.65" fill="none" xmlns="http://www.w3.org/2000/svg">
<g id="Group">
<path id="Vector" d="M20.325 22.65H2.325C1.05 22.65 0 21.6 0 20.325V2.325C0 1.05 1.05 0 2.325 0H20.325C21.6 0 22.65 1.05 22.65 2.325V20.325C22.65 21.6 21.6 22.65 20.325 22.65ZM2.325 1.65C1.95 1.65 1.65 1.95 1.65 2.325V20.325C1.65 20.7 1.95 21 2.325 21H20.325C20.7 21 21 20.7 21 20.325V2.325C21 1.95 20.7 1.65 20.325 1.65H2.325Z" fill="var(--fill-0, #212E45)"/>
</g>
</svg>
