<svg preserveAspectRatio="none" width="100%" height="100%" overflow="visible" style="display: block;" viewBox="0 0 22.7252 17.5875" fill="none" xmlns="http://www.w3.org/2000/svg">
<g id="Group">
<path id="Vector" d="M4.725 0H1.6125C0.75 0 2.98023e-08 0.7125 2.98023e-08 1.6125V4.725C2.98023e-08 5.5875 0.7125 6.3375 1.6125 6.3375H4.725C5.5875 6.3375 6.3375 5.625 6.3375 4.725V1.6125C6.3375 0.7125 5.625 0 4.725 0ZM4.65 4.6125H1.725V1.6875H4.65V4.6125Z" fill="var(--fill-0, #212E45)"/>
<path id="Vector_2" d="M4.725 11.25H1.6125C0.75 11.25 0 11.9625 0 12.8625V15.975C0 16.8375 0.7125 17.5875 1.6125 17.5875H4.725C5.5875 17.5875 6.3375 16.875 6.3375 15.975V12.8625C6.3375 11.9625 5.625 11.25 4.725 11.25ZM4.65 15.8625H1.725V12.9375H4.65V15.8625Z" fill="var(--fill-0, #212E45)"/>
<path id="Vector_3" d="M10.125 2.4H21.8625C22.3125 2.4 22.725 2.025 22.725 1.5375C22.725 1.05 22.35 0.675 21.8625 0.675H10.125C9.675 0.675 9.2625 1.05 9.2625 1.5375C9.2625 2.025 9.675 2.4 10.125 2.4Z" fill="var(--fill-0, #212E45)"/>
<path id="Vector_4" d="M21.8627 3.90039H10.1252C9.6752 3.90039 9.2627 4.27539 9.2627 4.76289C9.2627 5.25039 9.6377 5.62539 10.1252 5.62539H21.8627C22.3127 5.62539 22.7252 5.25039 22.7252 4.76289C22.7252 4.27539 22.3127 3.90039 21.8627 3.90039Z" fill="var(--fill-0, #212E45)"/>
<path id="Vector_5" d="M21.8627 11.9629H10.1252C9.6752 11.9629 9.2627 12.3379 9.2627 12.8254C9.2627 13.3129 9.6377 13.6879 10.1252 13.6879H21.8627C22.3127 13.6879 22.7252 13.3129 22.7252 12.8254C22.7252 12.3379 22.3127 11.9629 21.8627 11.9629Z" fill="var(--fill-0, #212E45)"/>
<path id="Vector_6" d="M21.8627 15.1504H10.1252C9.6752 15.1504 9.2627 15.5254 9.2627 16.0129C9.2627 16.5004 9.6377 16.8754 10.1252 16.8754H21.8627C22.3127 16.8754 22.7252 16.5004 22.7252 16.0129C22.7252 15.5254 22.3127 15.1504 21.8627 15.1504Z" fill="var(--fill-0, #212E45)"/>
</g>
</svg>
